<?xml version="1.0" standalone="no"?><!DOCTYPE svg PUBLIC "-//W3C//DTD SVG 1.1//EN" "http://www.w3.org/Graphics/SVG/1.1/DTD/svg11.dtd"><svg t="1537152765980" class="icon" style="" viewBox="0 0 1024 1024" version="1.1" xmlns="http://www.w3.org/2000/svg" p-id="9872" xmlns:xlink="http://www.w3.org/1999/xlink" width="64" height="64"><defs><style type="text/css"></style></defs><path d="M372.10456085 657.92075349h60.94837189v-69.13661958c0-2.24018097 0.07724763-5.56182862 0.23174286-10.04219055s0.46348572-8.18824768 0.7724762-11.27815247c-8.88347626 15.7585144-18.84841919 31.05354309-29.81758118 45.73059083-11.20090485 14.75429535-21.86107636 29.66308594-32.13500976 44.72637177zM818.51855469 334.02148437l-1.23596192-4.01687622c-1.08146667-6.17980958-2.93540955-12.12787628-5.484581-17.76695251l-32.83023833-106.75621033H245.03222656l-32.83023834 106.75621033c-2.47192383 5.63907623-4.3258667 11.58714294-5.484581 17.76695251l-1.23596191 4.01687623h0.61798096c-0.3862381 3.24440003-0.61798096 6.56604767-0.61798096 9.88769531 0 43.72215271 35.99739075 79.1015625 80.41477204 79.1015625 34.52968597 0 63.96102906-21.39759064 75.39367675-51.5241623 11.35540009 30.04932404 40.86399079 51.5241623 75.39367676 51.5241623 34.52968597 0 63.96102906-21.39759064 75.39367676-51.5241623 11.35540009 30.04932404 40.86399079 51.5241623 75.39367675 51.5241623 34.52968597 0 63.96102906-21.39759064 75.39367676-51.5241623 11.35540009 30.04932404 40.86399079 51.5241623 75.39367676 51.5241623 44.41738129 0 80.41477204-35.37940979 80.41477203-79.1015625 0-3.32164765-0.23174287-6.64329529-0.61798095-9.88769532h0.46348572z" p-id="9873"></path><path d="M665.25927734 423.47422791c-19.46640015 18.15319062-45.49884797 29.19960022-74.15771484 29.19960022-31.13079071 0-59.24892426-13.13209534-79.1015625-34.14344788-19.85263825 21.01135254-47.9707718 34.14344787-79.1015625 34.14344788-28.65886688 0-54.69131469-11.04640961-74.15771484-29.19960022-19.46640015 18.15319062-45.49884797 29.19960022-74.15771485 29.19960022-10.27393342 0-20.23887635-1.39045716-29.66308594-4.09412385v369.93885041h514.16015625V448.57970428c-9.42420959 2.70366669-19.38915253 4.09412384-29.66308593 4.09412385-28.65886688 0-54.69131469-11.04640961-74.15771485-29.19960022zM490.06167602 684.18494415H465.65142823v43.72215271h-32.67574311v-43.72215271H337.65212249v-22.63355254l93.54686738-130.85746766H465.65142823v127.22682954h24.41024779v26.26419066z m168.16806794 31.05354309c-12.82310486 10.42842865-31.59427643 15.83576203-56.31351471 16.22200012-25.72345734 0-45.49884797-5.33008576-59.4034195-15.91300964-13.90457153-10.81466675-23.17428589-27.19116211-27.73189545-49.12948609l36.53812409-7.95650481c4.48036193 29.66308594 20.93410492 44.18563843 49.36122895 43.72215271 12.51411438-0.15449524 21.86107636-3.01265717 28.04088592-8.49723816 6.17980958-5.33008576 9.26971435-11.81888581 9.26971435-19.54364778 0.15449524-6.17980958-1.77669526-11.50989533-5.9480667-15.91300963-4.24861909-4.63485718-12.28237152-8.88347626-23.94676209-12.82310487-3.9396286-1.39045716-8.57448578-2.93540955-13.90457153-4.63485716-5.484581-1.54495239-10.96916198-3.01265717-16.45374299-4.40311433-20.70236206-4.78935242-35.37940979-11.58714294-43.95389557-20.31612396-8.57448578-8.72898102-12.66860962-20.23887635-12.35961914-34.45243835 0.15449524-14.9087906 6.48880005-27.34565735 19.00291444-37.31060029 12.51411438-10.11943818 29.74033357-15.37227631 51.67865753-15.68126678 24.02400971 0 42.33169555 4.7121048 55.00030517 14.13631439 12.82310486 9.26971435 21.16584778 22.78804779 24.95098114 40.63224793l-36.76986694 7.18402863c-1.54495239-9.96494294-5.63907623-17.76695252-12.35961914-23.40602875-6.72054292-5.484581-16.29924774-8.34274292-28.81336212-8.49723816-11.27815247 0.15449524-19.69814301 2.54917146-25.18272399 7.18402863-5.484581 4.63485718-8.18824768 9.96494294-8.18824769 15.91300963-0.30899048 6.48880005 2.39467621 11.89613342 8.18824769 16.22200013 5.63907623 4.24861909 16.14475251 8.11100006 31.36253356 11.58714294 6.87503815 1.39045716 13.44108581 3.08990479 19.77539063 5.17559052 6.48880005 2.24018097 12.35961914 4.40311432 17.45796203 6.41155243 14.75429535 6.48880005 25.10547638 14.21356201 31.13079071 23.17428588 5.79357148 8.88347626 8.6517334 18.30768586 8.49723815 28.27262879 0.07724763 17.6897049-6.25705719 31.90326691-18.9256668 42.64068604z" p-id="9874"></path></svg>