<?xml version="1.0" standalone="no"?><!DOCTYPE svg PUBLIC "-//W3C//DTD SVG 1.1//EN"
  "http://www.w3.org/Graphics/SVG/1.1/DTD/svg11.dtd">
<svg t="1537152966959" class="icon" style="" viewBox="0 0 1024 1024" version="1.1" xmlns="http://www.w3.org/2000/svg"
     p-id="10787" xmlns:xlink="http://www.w3.org/1999/xlink" width="64" height="64">
  <defs>
    <style type="text/css"></style>
  </defs>
  <path
    d="M513.44314266 592.02732673c70.3484414 0 162.77039031-93.79068017 162.7703903-212.43578175 0-118.6233759-59.31168795-165.51871598-162.7703903-165.51871597-103.45870236 0-165.52957914 45.51574567-165.52957914 165.51871597 0 117.81951806 95.18113711 212.43578175 165.52957914 212.43578175zM835.20361787 746.85690334c-7.88649916-22.35594392-17.33726263-44.38599944-26.5381779-54.17351382-17.0982776-18.16284677-115.28845111-70.26153803-158.696786-92.82387815a23.57259413 23.57259413 0 0 0-31.63290001 9.72233734l-49.57848809 91.71585696c-6.99573734 12.9377693-26.46213771 9.38558579-28.43919375-5.19248801-0.42365492-3.1285286 0.14121851-6.30050918 1.59685313-9.09228622l10.94985008-20.9003093a15.17553608 15.17553608 0 0 0-1.83583817-16.83756688l-20.96548634-24.85442203a23.59431982 23.59431982 0 0 0-36.08670853 0.01086315l-20.91117182 24.83269572a15.20812491 15.20812491 0 0 0-1.83583815 16.84843004l10.94985007 20.88944614c1.46649778 2.79177704 2.02050805 5.9746208 1.59685313 9.09228622-1.96619352 14.57807443-21.44345641 18.13025793-28.43919375 5.19248865l-49.57848808-91.71585759a23.57259413 23.57259413 0 0 0-31.63290003-9.72233734c-43.40833426 22.56234011-141.59850776 74.65016821-158.696786 92.82387814-9.21177844 9.78751501-18.6625419 31.81757054-26.53817789 54.17351445-10.85208357 30.77472768 11.82974874 63.05940449 44.46203964 63.0594045h557.35605998c32.66488036 0.02172568 55.35757522-32.27381429 44.49462848-63.04854197z"
    p-id="10788"></path>
</svg>
