<?xml version="1.0" standalone="no"?><!DOCTYPE svg PUBLIC "-//W3C//DTD SVG 1.1//EN"
  "http://www.w3.org/Graphics/SVG/1.1/DTD/svg11.dtd">
<svg t="1537152940074" class="icon" style="" viewBox="0 0 1024 1024" version="1.1" xmlns="http://www.w3.org/2000/svg"
     p-id="10657" xmlns:xlink="http://www.w3.org/1999/xlink" width="64" height="64">
  <defs>
    <style type="text/css"></style>
  </defs>
  <path
    d="M512 207.83749771C344.01539517 207.83749771 207.83749771 344.01539517 207.83749771 512c0 167.94115305 136.17789745 304.16250229 304.16250229 304.16250229 167.98460483 0 304.16250229-136.22134925 304.16250229-304.16250229C816.16250229 344.01539517 679.98460483 207.83749771 512 207.83749771zM632.66560984 489.23126412l-1e-8 64.26519155L547.63046456 553.49645567l0 22.29076624 85.03514528 0-1e-8 64.35209513L547.63046456 640.13931704l0 61.78843974L484.2777605 701.92775679l0-61.78843976L401.63246345 640.13931704 401.63246345 575.78722191l82.64529705 0L484.2777605 553.49645567 401.63246345 553.49645567 401.63246345 489.23126412l48.27493431 0L368.95672035 340.01783085l73.12935592 0L512 468.7220211l69.87047196-128.70419025 73.17280769 0L574.09260225 489.23126412 632.66560984 489.23126412z"
    p-id="10658"></path>
</svg>
