<?xml version="1.0" standalone="no"?><!DOCTYPE svg PUBLIC "-//W3C//DTD SVG 1.1//EN" "http://www.w3.org/Graphics/SVG/1.1/DTD/svg11.dtd"><svg t="1537152928625" class="icon" style="" viewBox="0 0 1024 1024" version="1.1" xmlns="http://www.w3.org/2000/svg" p-id="10526" xmlns:xlink="http://www.w3.org/1999/xlink" width="64" height="64"><defs><style type="text/css"></style></defs><path d="M501.57641405 408.97801829l87.47719867 1e-8 0 37.49763849-87.47719867 0 0-37.49763849Z" p-id="10527"></path><path d="M730.05789558 279.28920478c-5.16677294 0.16155446-10.30686721 0.24233134-15.28466544 0.24233133l-0.02667867 0c-131.6393222 0-189.60173876-60.33015002-190.08566058-60.84223293l-13.15926332-14.39611697-13.15259349 14.39611697c-0.59211893 0.61879762-61.78413875 65.49692295-205.42442492 60.5999016l-18.48684916-0.6187976 0 273.44915336c0 40.98365434 7.93839218 92.76995425 53.49521811 144.58367372l2.6641637 2.94799511c34.14798086 37.60435318 88.42355106 75.12941193 174.44602012 108.37476376l6.43252854 2.47593058 6.43178696-2.47593058C724.59543395 728.10479355 748.49138739 623.68440375 748.49138739 552.11956126l0-273.44915337L730.05789558 279.28920478zM441.16770972 619.35208108L412.02494734 619.35208108 412.02494734 494.38761877c-6.24281297 11.11241481-13.21262066 21.86318546-20.82716307 32.27602649-0.69957448-5.54249763-2.0994643-13.53424717-4.17076822-23.94782906-1.39914895-6.92904848-2.4492519-12.49970721-3.12140684-16.66973457 19.42875569-32.62803667 34.71268027-70.81191066 45.82583593-114.55236285l30.19212447 8.32819743c-4.87034269 18.06962438-11.11389723 36.11182924-18.75511831 54.15403336L441.16845057 619.35208108zM630.70942128 590.19671985c-3.47119373 6.24355455-6.24281297 10.75002981-8.31485844 13.53498802-28.49728683-16.65713572-49.32519076-37.13377106-62.48371324-61.44546755l0 77.06658088-31.26742363 0L528.64342597 543.33337912c-15.95756124 27.07071762-37.82889898 48.24840916-65.59919109 63.5197356-6.94312903-10.4135819-12.8628338-18.37865275-17.70649781-23.94931077 27.06997676-14.58435011 48.59745589-32.96300286 64.57724925-55.19079733l-58.3336947 0 0-27.08331573 77.06213506 0 0-27.07071763-57.25691381 0L471.38651287 381.90655982l147.88664384 0 0 91.65241345-59.36230638 0 0 27.07071762 77.06880418 0 0 27.08331573-59.38972662 0c13.88477563 20.14092829 34.39031219 36.79880559 61.46177139 49.98400602C637.65180946 580.48271316 634.88018949 584.65274052 630.70942128 590.19671985z" p-id="10528"></path></svg>