<?xml version="1.0" standalone="no"?><!DOCTYPE svg PUBLIC "-//W3C//DTD SVG 1.1//EN" "http://www.w3.org/Graphics/SVG/1.1/DTD/svg11.dtd"><svg t="1537152759752" class="icon" style="" viewBox="0 0 1024 1024" version="1.1" xmlns="http://www.w3.org/2000/svg" p-id="9742" xmlns:xlink="http://www.w3.org/1999/xlink" width="64" height="64"><defs><style type="text/css"></style></defs><path d="M514.77069297 687.53396431c2.96939389 0 5.99089396-0.18272155 9.02976384-0.54121645 29.16661624-3.50296757 53.93263791-23.88854273 63.07286777-51.98036884 0.68989419-2.10025226-0.30708261-4.35126661-2.31771081-5.27598852-1.99048014-0.92680624-4.39781501-0.12436173-5.52123785 1.75912588-0.1076871 0.17924744-11.69554859 18.89670989-56.80684932 24.98903864-6.75234848 0.90665886-13.3233652 1.38187272-19.55117187 1.38187271-31.60590989-0.02014805-45.69142348-11.93246062-45.81856408-12.04223205-1.59030008-1.41383149-4.01708776-1.45134872-5.6490737-0.07294944-1.64518578 1.37631496-2.02452326 3.7718384-0.90318475 5.60321916C464.06520427 673.66035081 488.75271806 687.53396431 514.77069297 687.53396431L514.77069297 687.53396431 514.77069297 687.53396431zM514.77069297 687.53396431M757.33347406 407.95728099c-0.39948554 0-0.76214907 0.07225489-1.13870768 0.07225489C729.76271632 293.59463311 628.76303519 208.23255388 507.6730501 208.23255388c-124.42204186 0-227.73873991 90.07809304-250.6358636 209.24707332-22.26558933 4.00666677-39.21350425 23.57520714-39.21350427 47.244207l0 94.7211574c0 26.54807448 21.28945513 48.07513687 47.57630086 48.07513687 14.82751531 0 27.91535756-7.0017665 36.62066965-17.75522332 21.03725825 55.64174126 63.86419674 100.50431923 118.06292661 124.17262386 0.12991948-0.28137679 1.15538164-2.27741538 2.38927115-3.86771544 0.85524657-1.10119046 1.8112327-2.00437521 2.63035182-2.00437522 0.85246769 0 1.63059616 0.30708261 2.29756344 0.77882302-12.54384695-9.33893078-57.85245952-57.34528687-67.6672994-124.33728169-4.30819163-29.48828845 17.77815025-58.4346666 43.50015875-63.2201564 41.29360848-7.69166067 82.37184206-16.4490796 123.66545121-23.99206186 26.24863395-4.78965847 44.18727405-19.18711854 55.15819011-43.16250646 2.56990836-5.60530348 6.28060806-16.93888307 7.98345911-33.28027557 0.45228692-2.43026179 2.44485208-4.2963809 4.99808582-4.29638091 1.7035456 0 3.15211477 0.86914163 4.11088047 2.12387376l1.13870768-0.71004225c16.27469538 23.63009287 48.55313029 75.94950378 53.18855256 131.11881007 5.32114781 63.07564663 2.35175392 106.27497508-45.92555733 150.47128101-0.05766459 0.05488572-0.13061471 0.12436173-0.20009004 0.18272155-0.67183047 0.72185298-1.06853713 1.66602838-1.06853713 2.7005224 0 1.35894578 0.7239373 2.51988585 1.77302094 3.22645397 0.39670666 0.16535238 0.7961922 0.38281158 1.19637228 0.54746875 0.32375722 0.07294943 0.63431392 0.17716311 0.95876569 0.1771631 0.32723064 0 0.61694475-0.10490823 0.90596363-0.1771631 0.68711531-0.36196898 1.33879773-0.7816019 2.00784933-1.14426545 48.82547521-26.89753749 86.27985361-71.81500184 103.58626343-125.84351612 7.00732424 10.40885701 17.97615666 17.90042765 30.71939909 20.513411C726.99271792 692.70226502 644.08243829 750.88126065 541.3653165 759.7144079c-6.15624633-15.27007582-21.30751886-26.1159356-39.10373282-26.1159356-23.24241874 0-42.08980068 18.41107438-42.08980067 41.09629731 0 22.68591746 18.84460306 41.07337038 42.08980067 41.07337038 18.7376105 0 34.43357288-12.03945318 39.87977697-28.57815617C661.04424898 777.52173872 756.35664533 706.8475289 776.25241633 597.03901656c17.57944998-7.34706085 29.92320688-24.59302721 29.92320689-44.7236266L806.17562322 456.47289404C806.17562322 429.68443276 784.30674057 407.95728099 757.33347406 407.95728099L757.33347406 407.95728099 757.33347406 407.95728099zM713.46995723 435.48704808c-31.01189207-84.00313278-111.3710216-144.01350982-205.90389969-144.01350982-94.13964554 0-174.20906165 59.50111941-205.50788825 142.96234119-1.55903583-1.90641453-3.38346906-3.53770523-5.17663804-5.18566989 17.72048566-101.70624994 105.24951293-179.03554209 210.79082431-179.03554211 105.03483328 0 192.29151562 76.56922741 210.59420835 177.56612966C716.4567203 430.21105889 714.79069124 432.74900847 713.46995723 435.48704808L713.46995723 435.48704808 713.46995723 435.48704808zM713.46995723 435.48704808M420.09261054 713.93683446l-0.00833731 0C420.0662095 713.97990943 420.0662095 713.98616241 420.09261054 713.93683446L420.09261054 713.93683446 420.09261054 713.93683446zM420.09261054 713.93683446" p-id="9743"></path></svg>