<?xml version="1.0" standalone="no"?><!DOCTYPE svg PUBLIC "-//W3C//DTD SVG 1.1//EN" "http://www.w3.org/Graphics/SVG/1.1/DTD/svg11.dtd"><svg t="1537152778310" class="icon" style="" viewBox="0 0 1024 1024" version="1.1" xmlns="http://www.w3.org/2000/svg" p-id="10003" xmlns:xlink="http://www.w3.org/1999/xlink" width="64" height="64"><defs><style type="text/css"></style></defs><path d="M642.36187114 687.8535522c-81.63470493-12.79534927-108.3953754-41.16785765-108.43150285-41.16785765l-2.43582021-2.59283529 0 0.04238042c-8.68516403-8.29054172-11.63371466-22.99577962-12.4708975-35.78626568 53.04334823-40.82881558 94.20703721-118.27830082 94.20703721-204.95763996 0-138.82019716-92.83141681-189.45204188-165.75942054-189.45204188-72.90855022 0-166.71818555 50.63184472-166.71818556 189.45204188 0 86.67933913 42.2030462 164.12882438 95.26723704 204.99585173-0.79897107 12.71475776-3.76836498 27.41721678-12.51605681 35.74805391l-1.89182491 2.03286058c-0.27790268 0.27720814-26.93852882 28.84980655-108.95604465 41.68614648-11.53505942 0.39601211-59.71718885 4.93764168-80.49599723 51.80320574-11.42042409 25.78245195-6.77458087 44.63400255-0.85802545 55.87031668 14.02854423 26.70231066 44.89523197 30.08925383 52.54659656 30.56933155l444.01953783 0c10.76109961 0 46.94407194-2.27255217 60.49531731-31.8442117 5.77968772-12.51188815 8.84843209-33.15660841-9.00544716-60.41194624C696.43971339 698.92798738 661.17243177 688.60666942 642.36187114 687.8535522z" p-id="10004"></path><path d="M849.34889825 665.65674433c-16.09753226-25.07032539-40.88648085-32.48130382-54.11466424-33.04127853-57.34945485-9.12564023-76.15862569-29.48689936-76.19544769-29.48689935l-1.67714456-1.83554943c-6.09441308-5.93670278-8.20647608-16.53661866-8.76575556-25.72270302 37.25984609-29.31043079 63.68355952-80.79682684 63.68355953-143.02625946 0-99.66852615-64.39985475-145.71774998-115.65003332-145.71774997-9.84054567 0-19.92703524 1.5152663-29.80996134 4.68336046 2.71163858 7.87090812 5.06408772 16.03917244 7.17545549 24.44851742l-6.297282 0c0 0 35.62786085 117.16529961-6.97328113 217.0901913-2.03216603-2.16972759-4.06572115-4.10393294-6.02007386-6.57518537-6.29311403 12.81410823-13.4261891 24.56871052-21.31863505 35.2103116 4.62500064 5.05783475 9.48621945 9.80372367 14.7066277 13.88681333-0.55789039 9.14509305-2.67134249 19.70679715-8.84773688 25.6865756L597.92865387 602.73116525c-0.12088762 0.12019307-10.55892523 11.39402375-39.25241127 20.95875037 20.8802425 2.2308663 42.72133505 5.50178503 63.84126982 10.04341458 0.55927948-0.55789039 1.03518856-1.11716986 1.433285-1.51526628 1.15885574-1.19706751 2.07454578-2.47125244 3.15142021-3.74752238 3.90384289 2.07454578 8.60735072 4.58400999 15.06234302 8.13144232 32.63831958 17.93308168 91.49817751 47.42484354 101.18379178 58.30057847l-1.5152663 0c10.56170411 12.95305957 20.04653378 27.85769297 27.29632849 43.72039682l46.5091535 0c7.56868872 0 30.48596047-8.36835435 40.00830736-29.52997433l0.04168519 0C859.71259664 700.046547 861.90316684 685.21903171 849.34889825 665.65674433z" p-id="10005"></path></svg>