<?xml version="1.0" standalone="no"?><!DOCTYPE svg PUBLIC "-//W3C//DTD SVG 1.1//EN"
  "http://www.w3.org/Graphics/SVG/1.1/DTD/svg11.dtd">
<svg t="1537152864010" class="icon" style="" viewBox="0 0 1024 1024" version="1.1" xmlns="http://www.w3.org/2000/svg"
     p-id="10264" xmlns:xlink="http://www.w3.org/1999/xlink" width="64" height="64">
  <defs>
    <style type="text/css"></style>
  </defs>
  <path
    d="M593.84591191 774.77148106l-15.01962075 8.19513458c-7.63920716 4.16945431-19.11239582 2.48250259-25.18925644-3.59435741l-22.80260261-22.68758311c-6.38357827-6.38357827-8.09928518-17.39668953-3.8914906-25.06465124l8.01302023-15.35509485c-6.46025815-11.4156789-10.85016641-21.36486003-13.73523729-31.10317161l-13.77357692-4.76372136c-7.05452519-2.06076481-17.6554831-9.95876618-17.6554831-20.24342077l-0.31630334-32.10000694c0-10.28465458 10.74473198-18.20182545 18.01012606-20.32010001l15.66181311-4.87874087a149.78405727 149.78405727 0 0 1 12.71923248-30.83479299l-8.40600409-15.3550942c-4.2653037-7.79256693-2.67420199-18.81526261 3.61352754-25.1029915l22.67799803-22.55339409c6.08644508-6.08644508 17.34876484-7.62003766 25.22759608-3.31639371l15.01962075 8.59770285c1.96491544-1.07351456 3.99692506-2.07993495 6.08644505-3.0671852a253.57951118 253.57951118 0 0 0-93.45328956-39.88298817c52.47761671-20.6939131 89.76308278-71.78171128 89.76308278-131.5247227 0-77.99276092-63.44280263-141.4259785-141.4259785-141.42597849S313.53396726 261.82314684 313.53396726 339.80632271c0 59.6471614 37.1704472 110.67744983 89.51387426 131.42887332C286.63858959 495.30301196 198.85959174 598.60963327 198.85959174 722.04465583c0 30.02007199 21.03897163 39.95966805 37.95641298 47.94393374l0.9776652 0.40256828c68.22569413 24.07740163 166.89319802 30.49931952 214.4345641 30.49931953 41.29197683 0 106.4217312-5.12795002 162.97295285-16.48611852a148.83514729 148.83514729 0 0 1-21.35527496-9.6328778z"
    p-id="10265"></path>
  <path
    d="M666.83532739 551.25996657c-51.83542498 0-93.99963192 42.16420757-93.9996319 93.99963256s42.17379263 93.99963192 93.9996319 93.99963191 93.99963192-42.16420757 93.99963256-93.99963191-42.16420757-93.99963192-93.99963256-93.99963255z m-1.34189319 129.00387985a35.56975978 35.56975978 0 1 1 0-71.13951955 35.56975978 35.56975978 0 0 1 0 71.13951955z"
    p-id="10266"></path>
  <path
    d="M833.40263765 627.23030231c0-5.58802741-2.48250259-10.65846767-7.85007667-12.22081483l-22.16999595-5.56885728c-3.48892298-13.93652112-8.06094556-27.06790693-15.31675458-39.03951261l10.025861-17.46378436c2.68378704-4.90749606 1.87865049-12.15372-2.07034988-16.10272037l-22.56297916-22.67799867c-2.47291753-2.46333309-6.19187951-3.79564123-9.84374667-3.79564123-2.19495445 0-4.36115371 0.47924753-6.20146394 1.4856679L739.64262919 521.58495311a141.27261937 141.27261937 0 0 0-38.44524558-15.70015273l-5.77972681-15.94936189c-1.57193222-5.36757346-7.26539408-10.49552348-12.85342148-10.49552346l-32.18627188 0.52717285c-5.58802741 0-11.50194322 4.60077715-13.07387544 9.96835061l-5.93308594 18.32643003c-13.32308458 3.46016777-25.87937287 7.85966111-37.38131608 14.78958236l-18.75775223-10.73514754a13.64897298 13.64897298 0 0 0-6.51776791-1.57193223c-3.56560222 0-7.18871482 1.23645875-9.58495309 3.6422821l-22.67799805 22.56297916c-3.94900037 3.94900037-4.99376037 11.1377152-2.30997394 16.04521062l10.45718384 19.08364125a141.41639344 141.41639344 0 0 0-15.19215002 36.79663348l-19.70666347 6.13436976c-5.36757346 1.57193222-12.61379805 7.41875321-12.61379741 13.01636632l0.31630335 32.07125173c0 5.58802741 6.92992062 11.44443346 12.28790962 13.01636633l17.79925718 6.14395482c3.33556384 13.09304557 9.46034852 25.44804939 16.14106063 36.81580361l-9.97793632 19.1123958c-2.68378704 4.90749606-1.39940295 12.15372 2.54959741 16.10272039l22.80260324 22.67799865c2.47291753 2.46333309 6.2398042 3.79564123 9.92042593 3.79564124 2.21412395 0 4.39949333-0.47924753 6.23980419-1.48566791l18.79609249-10.25589939c11.50194322 6.92992062 24.07740163 12.27832458 37.39090114 15.73849237l5.93308531 18.95903666c1.57193222 5.36757346 6.98743037 13.11221569 12.5754584 13.11221571l32.79012336 0.02875457c5.58802741 0 11.18563988-7.77339681 12.7575721-13.14097028l5.78931188-16.58196789c13.70648273-3.35473332 26.6365841-9.64246223 38.46441507-16.64906335l17.8184273 9.26864976c1.76363162 0.96808013 3.83398087 1.41857308 5.942671 1.41857246 3.74771654 0 7.62962273-1.43774321 10.16005002-3.9681705l22.67799802-22.80260261c3.94900037-3.94900037 4.99376037-11.2527347 2.30997398-16.16023012l-9.54661285-17.50212397a141.7039422 141.7039422 0 0 0 16.26566457-39.04909768l20.26259026-5.56885728c5.35798839-1.57193222 8.31973914-7.43792333 8.31973915-13.02595139l-0.46966248-32.86680322zM666.83532739 744.3488408c-54.63423091 0-99.07965725-44.4550114-99.07965723-99.07965726s44.44542634-99.07965725 99.07965723-99.0796566 99.07965725 44.4550114 99.07965725 99.0796566-44.44542634 99.07965725-99.07965725 99.07965726z"
    p-id="10267"></path>
</svg>
