<?xml version="1.0" standalone="no"?><!DOCTYPE svg PUBLIC "-//W3C//DTD SVG 1.1//EN" "http://www.w3.org/Graphics/SVG/1.1/DTD/svg11.dtd"><svg t="1537152797238" class="icon" style="" viewBox="0 0 1024 1024" version="1.1" xmlns="http://www.w3.org/2000/svg" p-id="10134" xmlns:xlink="http://www.w3.org/1999/xlink" width="71.375" height="64"><defs><style type="text/css"></style></defs><path d="M783.77250498 217.26278389h-102.63464385c-4.84888125-21.01181634-24.24440443-37.17475326-46.87251574-37.17475324h-50.91324862c-6.4651744-16.16293689-21.81996473-26.66884418-39.59919475-26.6688442s-33.13401858 10.50590906-39.59919301 26.6688442h-51.72139517c-22.62811129 0-42.0236345 16.16293689-46.87251575 37.17475324h-102.63464384c-26.66884418 0-46.87251575 21.81996473-46.87251575 48.48880891v522.06283865c0 26.66884418 21.01181634 48.48880892 46.87251575 48.48880894h480.03920415c26.66884418 0 49.29695547-21.81996473 49.29695548-48.48880894v-522.06283865c0.80814657-26.66884418-21.81996473-48.48880892-48.48880891-48.48880891z m-239.21145459 23.43625787c21.81996473 0 38.79104641 17.77923005 38.79104638 38.79104641 0 21.81996473-17.77923005 38.79104641-38.79104638 38.7910482-21.81996473 0-38.79104641-17.77923005-38.79104824-38.7910482s16.97108348-38.79104641 38.79104824-38.79104641z m147.89086461 401.64896476c0 9.69776249-8.08146754 17.77923005-17.77923007 17.77923009h-260.22327093c-9.69776249 0-17.77923005-8.08146754-17.77923008-17.77923009v-16.16293687c0-9.69776249 8.08146754-17.77923005 17.77923008-17.77923004h260.22327093c9.69776249 0 17.77923005 8.08146754 17.77923007 17.77923004v16.16293687z m0-164.05380334c0 9.69776249-8.08146754 17.77923005-17.77923007 17.7792301h-260.22327093c-9.69776249 0-17.77923005-8.08146754-17.77923008-17.7792301v-16.16293507c0-9.69776249 8.08146754-17.77923005 17.77923008-17.77923004h260.22327093c9.69776249 0 17.77923005 8.08146754 17.77923007 17.77923004v16.16293507z" p-id="10135"></path></svg>
