<?xml version="1.0" standalone="no"?><!DOCTYPE svg PUBLIC "-//W3C//DTD SVG 1.1//EN"
  "http://www.w3.org/Graphics/SVG/1.1/DTD/svg11.dtd">
<svg t="1537152898313" class="icon" style="" viewBox="0 0 1024 1024" version="1.1" xmlns="http://www.w3.org/2000/svg"
     p-id="10396" xmlns:xlink="http://www.w3.org/1999/xlink" width="64" height="64">
  <defs>
    <style type="text/css"></style>
  </defs>
  <path
    d="M788.73356235 461.93539527L769.8116674 454.96953082A62.29899823 62.29899823 0 0 1 731.97466683 419.92973899a64.78389725 64.78389725 0 0 1 0-51.11695268l8.40520488-18.20222475c7.01338984-14.70571384 3.51008959-31.50933422-7.70590269-42.71174781l-19.62119714-19.60761844c-11.20920293-11.19562425-28.73249352-13.99962232-42.77285189-7.69911334l-18.22259277 8.40520485a64.9400521 64.9400521 0 0 1-51.15768871 0c-16.81719907-7.0066005-29.43179571-20.30692063-35.03979184-37.81663254l-4.20939178-16.79683104a38.02031279 38.02031279 0 0 0-35.71193665-24.50952306h-28.03998067a38.02031279 38.02031279 0 0 0-35.73909403 24.50952307l-7.0066005 18.90152692a62.29899823 62.29899823 0 0 1-35.03979183 37.80984321 64.9400521 64.9400521 0 0 1-51.15768873 0l-18.22259276-8.40520487c-14.71250318-6.99981116-31.52970225-3.4965109-42.77285189 7.70590267l-19.62119715 19.60082913c-11.21599228 11.20920293-14.71929251 28.01282332-7.71269201 42.7117478l8.41199421 18.20222475a64.78389725 64.78389725 0 0 1 0 51.11695267c-7.0066005 16.1043182-21.04695886 29.41142767-37.84378991 35.00584513L232.27912736 464.04009116c-13.31389882 5.60120678-21.72589302 18.90152693-22.40482718 32.90793858v28.00603398a37.03585826 37.03585826 0 0 0 25.22919326 35.01263447L254.00502038 566.99366671a62.27863022 62.27863022 0 0 1 37.84378991 35.00584512 64.78389725 64.78389725 0 0 1 0 51.11695268l-8.41199421 18.20222475c-7.0066005 14.6989245-3.50330025 31.50933422 7.71269203 42.71174781l19.62119713 19.60082911c11.20920293 11.20241359 28.73249352 14.00641165 42.77285189 7.70590267l18.22259276-8.40520486a64.9400521 64.9400521 0 0 1 51.15768873 0c16.81719907 6.99981116 29.43179571 20.30692063 35.03979184 37.80984321l7.00660049 18.90152692A38.02031279 38.02031279 0 0 0 500.70253562 814.12569982h28.03319135a38.02031279 38.02031279 0 0 0 35.74588337-24.50952307l7.00660049-18.20222475c5.60799614-16.80362038 18.91510561-30.8032427 35.73909402-37.80984318a63.24950606 63.24950606 0 0 1 50.45838652 0l18.22259278 8.40520485c14.71250318 6.99981116 31.52970225 3.4965109 42.77285189-7.69911334l19.62119714-19.60761845c11.21599228-11.20241359 14.71929251-28.00603397 7.70590268-42.71174781l-8.40520486-18.20901407a63.01866846 63.01866846 0 0 1 0-50.41086118c7.0066005-16.1043182 21.04695886-29.40463834 37.84378991-35.00584511l18.9151056-6.99981116c13.32068816-7.0066005 21.04695886-21.00622282 19.62798647-35.71193665v-28.00603398c0-16.1043182-9.81738792-30.11072986-25.22919326-35.71193665zM623.34520173 533.35247923c-11.20920293 55.3195551-61.67437882 93.82870048-118.43327433 90.29824287A111.87477037 111.87477037 0 0 1 399.79255189 518.65355473c-3.51008959-56.01885728 35.03979184-106.45687581 90.40008299-117.63213202 37.14448773-7.69911335 74.98827763 4.20260243 102.31537745 30.81003205 26.63458698 26.60742961 38.54309209 64.41727282 30.8371894 101.52102447z m0 0"
     p-id="10397"></path>
</svg>
